{"asset":{"version":"2.0","generator":"Blockbench 4.0.3 glTF exporter"},"scenes":[{"nodes":[12],"name":"blockbench_export"}],"scene":0,"nodes":[{"translation":[0,-0.5000000000000001,0],"name":"2f79071b-8078-fb81-86ec-c1d89ee354cd","mesh":0},{"rotation":[0.011869035914467956,0.2095913728590147,-0.05235012835839608,0.9763145223084587],"translation":[0,0.5937500000000001,0.04375],"name":"head","children":[0]},{"translation":[0,-0.5,-0.0625],"name":"efc31b75-5809-a18e-3d02-3d648672e471","mesh":1},{"rotation":[-0.08715574274765817,0,0,0.9961946980917455],"translation":[0,0.5,0.0625],"name":"body","children":[2]},{"translation":[0.0625,-0.5,0],"name":"264558ad-548a-6e88-573c-4bf283a284c9","mesh":2},{"rotation":[-0.0841859828293692,0.022557566113149834,-0.2578341604962995,0.9622501868990583],"translation":[-0.0625,0.5,0],"name":"left_arm","children":[4]},{"translation":[-0.0625,-0.5,0],"name":"d9d6555e-a215-a399-da88-c1e192ea970c","mesh":3},{"rotation":[-0.08418598282936919,-0.022557566113149817,0.2578341604962995,0.9622501868990583],"translation":[0.0625,0.5,0],"name":"right_arm","children":[6]},{"translation":[0.03125,-0.5,-0.0625],"name":"06b74a11-8bab-0d37-d802-30592aaa9232","mesh":4},{"rotation":[-0.08583165117743127,0.1729873939250893,0.0151344359013386,0.981060262190407],"translation":[-0.03125,0.625,0.046875],"name":"left_wing","children":[8]},{"translation":[-0.03125,-0.5,-0.0625],"name":"01b54c02-8c71-85f6-cad6-46112595a19e","mesh":5},{"rotation":[-0.08583165117743127,-0.1729873939250893,-0.0151344359013386,0.981060262190407],"translation":[0.03125,0.5,0.0625],"name":"right_wing","children":[10]},{"children":[1,3,5,7,9,11]}],"bufferViews":[{"buffer":0,"byteOffset":0,"byteLength":288,"target":34962,"byteStride":12},{"buffer":0,"byteOffset":288,"byteLength":288,"target":34962,"byteStride":12},{"buffer":0,"byteOffset":576,"byteLength":192,"target":34962,"byteStride":8},{"buffer":0,"byteOffset":768,"byteLength":72,"target":34963},{"buffer":0,"byteOffset":840,"byteLength":288,"target":34962,"byteStride":12},{"buffer":0,"byteOffset":1128,"byteLength":288,"target":34962,"byteStride":12},{"buffer":0,"byteOffset":1416,"byteLength":192,"target":34962,"byteStride":8},{"buffer":0,"byteOffset":1608,"byteLength":72,"target":34963},{"buffer":0,"byteOffset":1680,"byteLength":288,"target":34962,"byteStride":12},{"buffer":0,"byteOffset":1968,"byteLength":288,"target":34962,"byteStride":12},{"buffer":0,"byteOffset":2256,"byteLength":192,"target":34962,"byteStride":8},{"buffer":0,"byteOffset":2448,"byteLength":72,"target":34963},{"buffer":0,"byteOffset":2520,"byteLength":288,"target":34962,"byteStride":12},{"buffer":0,"byteOffset":2808,"byteLength":288,"target":34962,"byteStride":12},{"buffer":0,"byteOffset":3096,"byteLength":192,"target":34962,"byteStride":8},{"buffer":0,"byteOffset":3288,"byteLength":72,"target":34963},{"buffer":0,"byteOffset":3360,"byteLength":288,"target":34962,"byteStride":12},{"buffer":0,"byteOffset":3648,"byteLength":288,"target":34962,"byteStride":12},{"buffer":0,"byteOffset":3936,"byteLength":192,"target":34962,"byteStride":8},{"buffer":0,"byteOffset":4128,"byteLength":72,"target":34963},{"buffer":0,"byteOffset":4200,"byteLength":288,"target":34962,"byteStride":12},{"buffer":0,"byteOffset":4488,"byteLength":288,"target":34962,"byteStride":12},{"buffer":0,"byteOffset":4776,"byteLength":192,"target":34962,"byteStride":8},{"buffer":0,"byteOffset":4968,"byteLength":72,"target":34963}],"buffers":[{"byteLength":5040,"uri":"data:application/octet-stream;base64,"}],"accessors":[{"bufferView":0,"componentType":5126,"count":24,"max":[0.18290047347545624,0.8096271753311157,0.05448906496167183],"min":[-0.12959952652454376,0.49712714552879333,-0.2580109238624573],"type":"VEC3"},{"bufferView":1,"componentType":5126,"count":24,"max":[1,1,1],"min":[-1,-1,-1],"type":"VEC3"},{"bufferView":2,"componentType":5126,"count":24,"max":[0.62451171875,0.99951171875],"min":[0.00048828125,0.68798828125],"type":"VEC2"},{"bufferView":3,"componentType":5123,"count":36,"max":[23],"min":[0],"type":"SCALAR"},{"bufferView":4,"componentType":5126,"count":24,"max":[0.0625,0.625,0.0625],"min":[-0.0625,0.375,-0.0625],"type":"VEC3"},{"bufferView":5,"componentType":5126,"count":24,"max":[1,1,1],"min":[-1,-1,-1],"type":"VEC3"},{"bufferView":6,"componentType":5126,"count":24,"max":[0.24951171875,0.68701171875],"min":[0.00048828125,0.50048828125],"type":"VEC2"},{"bufferView":7,"componentType":5123,"count":36,"max":[23],"min":[0],"type":"SCALAR"},{"bufferView":8,"componentType":5126,"count":24,"max":[-0.1093124970793724,0.5811898708343506,0.03125],"min":[-0.109375,0.3936898708343506,-0.03125],"type":"VEC3"},{"bufferView":9,"componentType":5126,"count":24,"max":[1,1,1],"min":[-1,-1,-1],"type":"VEC3"},{"bufferView":10,"componentType":5126,"count":24,"max":[0.31298828125,0.71826171875],"min":[0.25048828125,0.59423828125],"type":"VEC2"},{"bufferView":11,"componentType":5123,"count":36,"max":[23],"min":[0],"type":"SCALAR"},{"bufferView":12,"componentType":5126,"count":24,"max":[0.1172500029206276,0.5947215557098389,0.03125],"min":[0.1171875,0.4072215259075165,-0.03125],"type":"VEC3"},{"bufferView":13,"componentType":5126,"count":24,"max":[1,1,1],"min":[-1,-1,-1],"type":"VEC3"},{"bufferView":14,"componentType":5126,"count":24,"max":[0.31298828125,0.62451171875],"min":[0.25048828125,0.50048828125],"type":"VEC2"},{"bufferView":15,"componentType":5123,"count":36,"max":[23],"min":[0],"type":"SCALAR"},{"bufferView":16,"componentType":5126,"count":24,"max":[-0.03125,0.5,0.0625625029206276],"min":[-0.53125,0.1875,0.0625],"type":"VEC3"},{"bufferView":17,"componentType":5126,"count":24,"max":[1,1,1],"min":[-1,-1,-1],"type":"VEC3"},{"bufferView":18,"componentType":5126,"count":24,"max":[0.49951171875,0.34423828125],"min":[-0.00048828125,0.18798828125],"type":"VEC2"},{"bufferView":19,"componentType":5123,"count":36,"max":[23],"min":[0],"type":"SCALAR"},{"bufferView":20,"componentType":5126,"count":24,"max":[0.53125,0.625,0.0625625029206276],"min":[0.03125,0.3125,0.0625],"type":"VEC3"},{"bufferView":21,"componentType":5126,"count":24,"max":[1,1,1],"min":[-1,-1,-1],"type":"VEC3"},{"bufferView":22,"componentType":5126,"count":24,"max":[0.49951171875,0.50048828125],"min":[-0.00048828125,0.34423828125],"type":"VEC2"},{"bufferView":23,"componentType":5123,"count":36,"max":[23],"min":[0],"type":"SCALAR"}],"materials":[{"pbrMetallicRoughness":{"metallicFactor":0,"roughnessFactor":1,"baseColorTexture":{"index":0}},"alphaMode":"MASK","alphaCutoff":0.05,"doubleSided":true}],"textures":[{"sampler":0,"source":0,"name":"allay.png"}],"samplers":[{"magFilter":9728,"minFilter":9728,"wrapS":33071,"wrapT":33071}],"images":[{"mimeType":"image/png","uri":"data:image/png;base64,"}],"meshes":[{"primitives":[{"mode":4,"attributes":{"POSITION":0,"NORMAL":1,"TEXCOORD_0":2},"indices":3,"material":0}]},{"primitives":[{"mode":4,"attributes":{"POSITION":4,"NORMAL":5,"TEXCOORD_0":6},"indices":7,"material":0}]},{"primitives":[{"mode":4,"attributes":{"POSITION":8,"NORMAL":9,"TEXCOORD_0":10},"indices":11,"material":0}]},{"primitives":[{"mode":4,"attributes":{"POSITION":12,"NORMAL":13,"TEXCOORD_0":14},"indices":15,"material":0}]},{"primitives":[{"mode":4,"attributes":{"POSITION":16,"NORMAL":17,"TEXCOORD_0":18},"indices":19,"material":0}]},{"primitives":[{"mode":4,"attributes":{"POSITION":20,"NORMAL":21,"TEXCOORD_0":22},"indices":23,"material":0}]}]}